<svg width="66" height="66" viewBox="0 0 66 66" fill="none" xmlns="http://www.w3.org/2000/svg">
<path d="M32.9911 16.0678C23.6212 16.0678 16.0593 23.6299 16.0593 33C16.0593 42.3701 23.6212 49.9322 32.9911 49.9322C42.361 49.9322 49.923 42.3701 49.923 33C49.923 23.6299 42.361 16.0678 32.9911 16.0678ZM32.9911 44.0047C26.9316 44.0047 21.9867 39.0596 21.9867 33C21.9867 26.9404 26.9316 21.9953 32.9911 21.9953C39.0506 21.9953 43.9956 26.9404 43.9956 33C43.9956 39.0596 39.0506 44.0047 32.9911 44.0047ZM50.6165 11.4282C48.4288 11.4282 46.6621 13.1949 46.6621 15.3826C46.6621 17.5703 48.4288 19.337 50.6165 19.337C52.8042 19.337 54.5708 17.5786 54.5708 15.3826C54.5715 14.8631 54.4696 14.3486 54.2711 13.8685C54.0726 13.3885 53.7814 12.9523 53.4141 12.5849C53.0467 12.2176 52.6106 11.9264 52.1305 11.7279C51.6504 11.5294 51.1359 11.4275 50.6165 11.4282ZM65.9963 33C65.9963 28.4429 66.0376 23.9271 65.7817 19.3783C65.5258 14.0947 64.3205 9.40556 60.4569 5.54195C56.5851 1.67008 51.9043 0.473023 46.6208 0.2171C42.0638 -0.0388224 37.5481 0.00245557 32.9994 0.00245557C28.4424 0.00245557 23.9267 -0.0388224 19.3779 0.2171C14.0945 0.473023 9.40538 1.67834 5.54185 5.54195C1.67005 9.41381 0.473015 14.0947 0.217096 19.3783C-0.0388217 23.9354 0.00245553 28.4512 0.00245553 33C0.00245553 37.5488 -0.0388217 42.0729 0.217096 46.6217C0.473015 51.9053 1.67831 56.5944 5.54185 60.458C9.41364 64.3299 14.0945 65.527 19.3779 65.7829C23.9349 66.0388 28.4506 65.9975 32.9994 65.9975C37.5564 65.9975 42.0721 66.0388 46.6208 65.7829C51.9043 65.527 56.5934 64.3217 60.4569 60.458C64.3287 56.5862 65.5258 51.9053 65.7817 46.6217C66.0459 42.0729 65.9963 37.5571 65.9963 33ZM58.7315 52.4667C58.1289 53.9692 57.4024 55.0919 56.2384 56.2477C55.0744 57.4117 53.9599 58.1382 52.4574 58.7409C48.1151 60.4663 37.804 60.0783 32.9911 60.0783C28.1782 60.0783 17.8589 60.4663 13.5166 58.7491C12.0141 58.1465 10.8914 57.42 9.7356 56.256C8.57159 55.0919 7.84511 53.9774 7.24246 52.4749C5.52534 48.1242 5.91334 37.813 5.91334 33C5.91334 28.187 5.52534 17.8675 7.24246 13.5251C7.84511 12.0226 8.57159 10.8998 9.7356 9.74404C10.8996 8.58826 12.0141 7.85351 13.5166 7.25085C17.8589 5.53369 28.1782 5.9217 32.9911 5.9217C37.804 5.9217 48.1233 5.53369 52.4657 7.25085C53.9682 7.85351 55.0909 8.58 56.2467 9.74404C57.4107 10.9081 58.1372 12.0226 58.7398 13.5251C60.4569 17.8675 60.0689 28.187 60.0689 33C60.0689 37.813 60.4569 48.1242 58.7315 52.4667Z" fill="#F6F1E6"/>
</svg>
