<svg width="66" height="66" viewBox="0 0 66 66" fill="none" xmlns="http://www.w3.org/2000/svg">
<path fill-rule="evenodd" clip-rule="evenodd" d="M0 5.51374C0 4.05141 0.580916 2.64897 1.61494 1.61494C2.64897 0.580916 4.05141 0 5.51374 0H60.4861C61.2103 0 61.9273 0.142626 62.596 0.419719C63.2651 0.696812 63.8729 1.10294 64.385 1.61494C64.8968 2.12695 65.3031 2.73477 65.5803 3.40371C65.8572 4.07269 66 4.78966 66 5.51374V60.4861C66 61.2103 65.8572 61.9273 65.5803 62.596C65.3031 63.2651 64.8968 63.8729 64.385 64.385C63.8729 64.8968 63.2651 65.3031 62.596 65.5803C61.9273 65.8572 61.2103 66 60.4861 66H5.51374C4.05141 66 2.64897 65.4189 1.61494 64.385C0.580916 63.3509 0 61.9486 0 60.4861V5.51374ZM26.1249 25.1625H35.0626V29.6533C36.3509 27.0708 39.6522 24.75 44.6117 24.75C54.1186 24.75 56.375 29.8898 56.375 39.3207V56.7875H46.7499V41.4685C46.7499 36.0979 45.4617 33.0687 42.1849 33.0687C37.6406 33.0687 35.7499 36.3344 35.7499 41.4685V56.7875H26.1249V25.1625ZM9.62498 56.375H19.25V24.75H9.62498V56.375ZM20.625 14.4375C20.625 15.25 20.4649 16.0546 20.154 16.8053C19.843 17.556 19.3872 18.2381 18.8127 18.8127C18.2381 19.3872 17.556 19.843 16.8053 20.154C16.0546 20.4649 15.25 20.625 14.4375 20.625C13.6249 20.625 12.8203 20.4649 12.0696 20.154C11.3189 19.843 10.6368 19.3872 10.0622 18.8127C9.48769 18.2381 9.03194 17.556 8.72098 16.8053C8.41004 16.0546 8.24999 15.25 8.24999 14.4375C8.24999 12.7965 8.90188 11.2226 10.0622 10.0622C11.2226 8.90188 12.7965 8.24999 14.4375 8.24999C16.0785 8.24999 17.6523 8.90188 18.8127 10.0622C19.9731 11.2226 20.625 12.7965 20.625 14.4375Z" fill="#F6F1E6"/>
</svg>
