<svg width="66" height="54" viewBox="0 0 66 54" fill="none" xmlns="http://www.w3.org/2000/svg">
<path d="M63.6429 0H2.35714C1.05335 0 0 1.08428 0 2.42636V50.9536C0 52.2957 1.05335 53.38 2.35714 53.38H63.6429C64.9467 53.38 66 52.2957 66 50.9536V2.42636C66 1.08428 64.9467 0 63.6429 0ZM60.6964 8.40128V47.9207H5.30357V8.40128L3.27054 6.77107L6.1654 2.94197L9.31808 5.4669H56.6893L59.842 2.94197L62.7368 6.77107L60.6964 8.40128ZM56.6893 5.45932L33 24.4153L9.31071 5.45932L6.15804 2.93438L3.26317 6.76349L5.29621 8.3937L30.4587 28.5325C31.1823 29.1112 32.0726 29.4254 32.989 29.4254C33.9053 29.4254 34.7956 29.1112 35.5192 28.5325L60.6964 8.40128L62.7295 6.77107L59.8346 2.94197L56.6893 5.45932Z" fill="#F6F1E6"/>
</svg>
